#N canvas -1 9 1523 811 10;
#X msg 288 119 devices;
#X text 147 118 list number of devices;
#X obj 287 148 comport 0 9600;
#X text 844 157 Sound Simulator : Arduino To Pure Data (Tutorial) (https://www.youtube.com/watch?v=eVW0FD9g_Sk)
;
#X obj 238 251 iem_alisttosym;
#X obj 238 271 fromsymbol;
#X text 406 98 replace number with port number;
#X msg 346 119 open 3;
#X msg 413 118 close;
#X text 394 149 0 to 1023;
#X text 412 215 stores floats that it receives. if it receives a bang
\, outputs the list;
#X text 438 260 converts a list of ASCII characters to a symbol;
#X obj 238 231 zl group 100;
#X text 392 186 ASCII: 32=space 13=CR 10=LF;
#X obj 300 187 sel 13 10;
#X text 128 292 split a list;
#X text 416 281 converts symbol to the message itself??? like "symbol
asdf" to "asdf" or to a list or sth?;
#X floatatom 190 344 5 0 0 0 - - -, f 5;
#X floatatom 242 344 5 0 0 0 - - -, f 5;
#X obj 236 292 unpack f f f f f f;
#X floatatom 288 383 5 0 0 0 - - -, f 5;
#X floatatom 371 378 5 0 0 0 - - -, f 5;
#X floatatom 434 377 5 0 0 0 - - -, f 5;
#X floatatom 487 377 5 0 0 0 - - -, f 5;
#X obj 139 385 outlet;
#X obj 218 385 outlet;
#X obj 289 400 outlet;
#X obj 360 397 outlet;
#X obj 434 401 outlet;
#X obj 487 401 outlet;
#X obj 344 74 list;
#X obj 338 26 inlet;
#X text 501 34 inlet indicating port number;
#X msg 1127 373 devices;
#X obj 1126 402 comport 0 9600;
#X obj 405 51 bng 18 250 50 0 empty empty empty 17 7 0 10 #fcfcfc #000000
#000000;
#X connect 0 0 2 0;
#X connect 2 0 14 0;
#X connect 4 0 5 0;
#X connect 5 0 19 0;
#X connect 7 0 2 0;
#X connect 8 0 2 0;
#X connect 12 0 4 0;
#X connect 14 0 12 0;
#X connect 14 2 12 0;
#X connect 17 0 24 0;
#X connect 18 0 25 0;
#X connect 19 0 17 0;
#X connect 19 1 18 0;
#X connect 19 2 20 0;
#X connect 19 3 21 0;
#X connect 19 4 22 0;
#X connect 19 5 23 0;
#X connect 20 0 26 0;
#X connect 21 0 27 0;
#X connect 22 0 28 0;
#X connect 23 0 29 0;
#X connect 30 0 7 0;
#X connect 31 0 30 1;
#X connect 31 0 35 0;
#X connect 33 0 34 0;
#X connect 35 0 30 0;
