#N canvas 94 23 1251 783 12;
#N canvas 0 22 450 300 (subpatch) 0;
#X array array1 16 float 3 black black;
#A 0 0 3 3 4 5 6 0 1 2 3 4 5 6 0 1 4;
#X coords 0 6 16 0 200 140 1;
#X restore 370 30 graph;
#X obj 350 220 array set array1;
#X obj 100 20 tgl 18 0 empty empty empty 17 7 0 10 #fcfcfc #000000
#000000 0 1;
#X floatatom 150 20 5 0 0 0 - - -, f 5;
#X text 191 20 bpm;
#X obj 100 50 t f b;
#X msg 151 50 tempo \$1 permin;
#X obj 100 80 metro 0.25 120 permin;
#X msg 128 110 0;
#X text 158 110 reset;
#X obj 100 140 f;
#X obj 140 140 + 1;
#X obj 100 170 % 16;
#X obj 100 210 hradio 15 0 0 16 empty empty empty 0 -8 0 10 #fcfcfc
#000000 #000000 0;
#X obj 100 260 array get array1;
#X msg 154 230 1;
#X obj 230 290 select 0 1 2 3 4 5 6;
#X obj 440 600 +~;
#X obj 440 630 dac~;
#X msg 350 180 0 3 3 4 5 6 0 1 2 3 4 5 6 0 1 4;
#X floatatom 100 290 5 0 0 0 - - -, f 5;
#N canvas 357 101 656 314 kick_drum 1;
#X obj 129 92 bng 15 250 50 0 empty empty empty 17 7 0 10 #fcfcfc #000000
#000000;
#X obj 169 102 f;
#X msg 129 132 150 \, 50 70 0;
#X obj 129 162 vline~;
#X msg 189 162 \$1 1 0 \, 0 100 1;
#X obj 129 192 osc~;
#X obj 189 192 vline~;
#X obj 130 220 *~;
#X text 229 92 kick drum;
#X obj 120 50 inlet;
#X obj 190 50 inlet;
#X obj 130 260 outlet~;
#X connect 0 0 2 0;
#X connect 0 0 1 0;
#X connect 1 0 4 0;
#X connect 2 0 3 0;
#X connect 3 0 5 0;
#X connect 4 0 6 0;
#X connect 5 0 7 0;
#X connect 6 0 7 1;
#X connect 7 0 11 0;
#X connect 9 0 0 0;
#X connect 10 0 1 1;
#X restore 160 420 pd kick_drum;
#N canvas 495 23 450 300 snare_drum 0;
#X obj 100 80 noise~;
#X obj 100 109 lop~ 3000;
#X obj 100 138 hip~ 1000;
#X obj 190 220 *~;
#X obj 250 81 f;
#X msg 250 110 \$1 1 0 \, 0 150 1;
#X obj 250 139 vline~;
#X obj 250 168 *~;
#X obj 180 119 osc~ 180;
#X obj 180 148 *~ 0.5;
#X text 170 78 snare;
#X obj 230 40 inlet;
#X obj 290 40 inlet;
#X obj 190 260 outlet~;
#X connect 0 0 1 0;
#X connect 1 0 2 0;
#X connect 2 0 3 0;
#X connect 3 0 13 0;
#X connect 4 0 5 0;
#X connect 5 0 6 0;
#X connect 6 0 7 0;
#X connect 6 0 7 1;
#X connect 7 0 3 1;
#X connect 8 0 9 0;
#X connect 9 0 3 0;
#X connect 11 0 4 0;
#X connect 12 0 4 1;
#X restore 280 420 pd snare_drum;
#N canvas 436 122 869 647 hihats_drum 0;
#X obj 142 67 inlet;
#X obj 260 70 inlet;
#X obj 140 100 bng 15 250 50 0 empty empty empty 17 7 0 10 #fcfcfc
#000000 #000000;
#X obj 140 130 f;
#X obj 260 160 t b f;
#X obj 310 190 random 10;
#X obj 310 219 / 20;
#X obj 310 248 + 0.8;
#X msg 150 190 \$1 \, 0 40 1;
#X obj 50 164 noise~;
#X obj 50 193 hip~ 2000;
#X obj 50 222 hip~ 1000;
#X obj 130 330 outlet~;
#X obj 150 220 vline~;
#X obj 260 290 *;
#X obj 110 260 *~;
#X connect 0 0 2 0;
#X connect 1 0 3 1;
#X connect 2 0 3 0;
#X connect 3 0 4 0;
#X connect 4 0 14 0;
#X connect 4 1 5 0;
#X connect 5 0 6 0;
#X connect 6 0 7 0;
#X connect 7 0 14 1;
#X connect 8 0 13 0;
#X connect 9 0 10 0;
#X connect 10 0 11 0;
#X connect 11 0 15 0;
#X connect 13 0 15 1;
#X connect 14 0 8 0;
#X connect 15 0 12 0;
#X restore 400 420 pd hihats_drum;
#X msg 110 420 1;
#X msg 320 450 0.3;
#X msg 530 400 1;
#X connect 2 0 5 0;
#X connect 3 0 6 0;
#X connect 5 0 7 0;
#X connect 5 1 8 0;
#X connect 6 0 7 0;
#X connect 7 0 10 0;
#X connect 8 0 10 1;
#X connect 10 0 11 0;
#X connect 10 0 12 0;
#X connect 11 0 10 1;
#X connect 12 0 13 0;
#X connect 13 0 14 0;
#X connect 14 0 20 0;
#X connect 15 0 14 1;
#X connect 16 0 21 0;
#X connect 16 1 22 0;
#X connect 16 2 23 0;
#X connect 16 3 21 0;
#X connect 16 3 22 0;
#X connect 16 4 21 0;
#X connect 16 4 23 0;
#X connect 16 5 22 0;
#X connect 16 5 23 0;
#X connect 16 6 23 0;
#X connect 16 6 21 0;
#X connect 16 6 22 0;
#X connect 17 0 18 0;
#X connect 17 0 18 1;
#X connect 19 0 1 0;
#X connect 20 0 16 0;
#X connect 21 0 17 0;
#X connect 22 0 17 0;
#X connect 23 0 17 0;
#X connect 24 0 21 1;
#X connect 25 0 22 1;
#X connect 26 0 23 1;
