#N canvas 0 23 1251 783 12;
#X obj 260 370 cnv 15 277 150 empty empty empty 20 12 0 14 #e0e0e0
#404040 0;
#X obj 50 370 cnv 15 188 161 empty empty empty 20 12 0 14 #e0e0e0 #404040
0;
#N canvas 0 0 450 300 (subpatch) 0;
#X array array1 16 float 3 black black;
#A 0 0 3 3 4 5 6 0 1 2 3 4 5 6 0 1 4;
#X coords 0 6 16 0 200 140 1;
#X restore 370 30 graph;
#X obj 350 220 array set array1;
#X obj 100 20 tgl 18 0 empty empty empty 17 7 0 10 #fcfcfc #000000
#000000 0 1;
#X floatatom 150 20 5 0 0 0 - - -, f 5;
#X text 191 20 bpm;
#X obj 100 50 t f b;
#X msg 151 50 tempo \$1 permin;
#X obj 100 80 metro 0.25 120 permin;
#X msg 128 110 0;
#X text 158 110 reset;
#X obj 100 140 f;
#X obj 140 140 + 1;
#X obj 100 170 % 16;
#X obj 100 210 hradio 15 0 0 16 empty empty empty 0 -8 0 10 #fcfcfc
#000000 #000000 7;
#X obj 100 260 array get array1;
#X msg 154 230 1;
#X obj 230 290 select 0 1 2 3 4 5 6;
#X obj 60 380 bng 15 250 50 0 empty empty empty 17 7 0 10 #fcfcfc #000000
#000000;
#X obj 100 390 f;
#X msg 60 420 150 \, 50 70 0;
#X obj 60 450 vline~;
#X msg 120 450 \$1 1 0 \, 0 100 1;
#X obj 60 480 osc~;
#X obj 120 480 vline~;
#X obj 60 510 *~;
#X obj 440 600 +~;
#X obj 440 630 dac~;
#X msg 350 180 0 3 3 4 5 6 0 1 2 3 4 5 6 0 1 4;
#X floatatom 100 290 5 0 0 0 - - -, f 5;
#X obj 270 382 noise~;
#X obj 270 411 lop~ 3000;
#X obj 270 440 hip~ 1000;
#X obj 360 490 *~;
#X obj 420 383 f;
#X msg 420 412 \$1 1 0 \, 0 150 1;
#X obj 420 441 vline~;
#X obj 420 470 *~;
#X obj 350 421 osc~ 180;
#X obj 350 450 *~ 0.5;
#X text 160 380 kick drum;
#X text 340 380 snare;
#X msg 80 330 1;
#X msg 420 340 0.67;
#X connect 4 0 7 0;
#X connect 5 0 8 0;
#X connect 7 0 9 0;
#X connect 7 1 10 0;
#X connect 8 0 9 0;
#X connect 9 0 12 0;
#X connect 10 0 12 1;
#X connect 12 0 13 0;
#X connect 12 0 14 0;
#X connect 13 0 12 1;
#X connect 14 0 15 0;
#X connect 15 0 16 0;
#X connect 16 0 30 0;
#X connect 17 0 16 1;
#X connect 18 0 19 0;
#X connect 18 1 35 0;
#X connect 18 3 19 0;
#X connect 18 3 35 0;
#X connect 18 4 19 0;
#X connect 18 5 35 0;
#X connect 18 6 19 0;
#X connect 18 6 35 0;
#X connect 19 0 21 0;
#X connect 19 0 20 0;
#X connect 20 0 23 0;
#X connect 21 0 22 0;
#X connect 22 0 24 0;
#X connect 23 0 25 0;
#X connect 24 0 26 0;
#X connect 25 0 26 1;
#X connect 26 0 27 0;
#X connect 27 0 28 0;
#X connect 27 0 28 1;
#X connect 29 0 3 0;
#X connect 30 0 18 0;
#X connect 31 0 32 0;
#X connect 32 0 33 0;
#X connect 33 0 34 0;
#X connect 34 0 27 0;
#X connect 35 0 36 0;
#X connect 36 0 37 0;
#X connect 37 0 38 0;
#X connect 37 0 38 1;
#X connect 38 0 34 1;
#X connect 39 0 40 0;
#X connect 40 0 34 0;
#X connect 43 0 20 1;
#X connect 44 0 35 1;
