#N canvas -8 -8 1920 984 12;
#N canvas 0 22 450 300 (subpatch) 0;
#X array array1 16 float 3 black black;
#A 0 4 2 4 2 5 2 4 5 2 5 4 5 5 4 2 5;
#X coords 0 6 16 0 200 140 1;
#X restore 380 60 graph;
#X obj 620 420 array set array1;
#X obj 100 20 tgl 18 0 empty empty empty 17 7 0 10 #fcfcfc #000000
#000000 0 1;
#X floatatom 150 20 5 0 0 0 - - -, f 5;
#X text 191 20 bpm;
#X obj 100 50 t f b;
#X msg 151 50 tempo \$1 permin;
#X obj 100 80 metro 0.25 120 permin;
#X msg 128 110 0;
#X text 158 110 reset;
#X obj 100 140 f;
#X obj 140 140 + 1;
#X obj 100 170 % 16;
#X obj 100 210 hradio 15 0 0 16 empty empty empty 0 -8 0 10 #fcfcfc
#000000 #000000 6;
#X obj 100 260 array get array1;
#X msg 154 230 1;
#X obj 230 390 select 0 1 2 3 4 5 6;
#X obj 440 700 +~;
#X obj 440 730 dac~;
#X floatatom 100 300 5 0 0 0 - - -, f 5;
#N canvas 967 227 656 339 kick_drum 0;
#X obj 130 90 bng 15 250 50 0 empty empty empty 17 7 0 10 #fcfcfc #000000
#000000;
#X obj 169 102 f;
#X msg 129 132 150 \, 50 70 0;
#X obj 129 162 vline~;
#X msg 189 162 \$1 1 0 \, 0 100 1;
#X obj 129 192 osc~;
#X obj 189 192 vline~;
#X text 229 92 kick drum;
#X obj 120 50 inlet;
#X obj 190 50 inlet;
#X obj 130 260 outlet~;
#X obj 130 220 *~;
#X connect 0 0 2 0;
#X connect 0 0 1 0;
#X connect 1 0 4 0;
#X connect 2 0 3 0;
#X connect 3 0 5 0;
#X connect 4 0 6 0;
#X connect 5 0 11 0;
#X connect 6 0 11 1;
#X connect 8 0 0 0;
#X connect 9 0 1 1;
#X connect 11 0 10 0;
#X restore 160 520 pd kick_drum;
#N canvas 495 23 450 300 snare_drum 0;
#X obj 100 80 noise~;
#X obj 100 109 lop~ 3000;
#X obj 100 138 hip~ 1000;
#X obj 190 220 *~;
#X obj 250 81 f;
#X msg 250 110 \$1 1 0 \, 0 150 1;
#X obj 250 139 vline~;
#X obj 250 168 *~;
#X obj 180 119 osc~ 180;
#X obj 180 148 *~ 0.5;
#X text 170 78 snare;
#X obj 230 40 inlet;
#X obj 290 40 inlet;
#X obj 190 260 outlet~;
#X connect 0 0 1 0;
#X connect 1 0 2 0;
#X connect 2 0 3 0;
#X connect 3 0 13 0;
#X connect 4 0 5 0;
#X connect 5 0 6 0;
#X connect 6 0 7 0;
#X connect 6 0 7 1;
#X connect 7 0 3 1;
#X connect 8 0 9 0;
#X connect 9 0 3 0;
#X connect 11 0 4 0;
#X connect 12 0 4 1;
#X restore 280 520 pd snare_drum;
#N canvas 68 76 869 647 hihats_drum 0;
#X obj 142 67 inlet;
#X obj 260 70 inlet;
#X obj 140 100 bng 16 250 50 0 empty empty empty 17 7 0 10 #fcfcfc
#000000 #000000;
#X obj 140 130 f;
#X obj 310 190 random 10;
#X obj 310 219 / 20;
#X obj 310 248 + 0.8;
#X msg 150 190 \$1 \, 0 40 1;
#X obj 50 164 noise~;
#X obj 50 193 hip~ 2000;
#X obj 50 222 hip~ 1000;
#X obj 130 330 outlet~;
#X obj 150 220 vline~;
#X obj 250 220 *;
#X obj 110 260 *~;
#X obj 260 160 t f b;
#X connect 0 0 2 0;
#X connect 1 0 3 1;
#X connect 2 0 3 0;
#X connect 3 0 15 0;
#X connect 4 0 5 0;
#X connect 5 0 6 0;
#X connect 6 0 13 1;
#X connect 7 0 12 0;
#X connect 8 0 9 0;
#X connect 9 0 10 0;
#X connect 10 0 14 0;
#X connect 12 0 14 1;
#X connect 13 0 7 0;
#X connect 14 0 11 0;
#X connect 15 0 13 0;
#X connect 15 1 4 0;
#X restore 400 520 pd hihats_drum;
#X msg 110 520 1;
#X msg 320 550 0.67;
#X msg 510 480 0.67;
#X text 620 20 0 = just kick;
#X text 620 50 1 = just snare;
#X text 620 80 2 = just hihat;
#X text 620 110 3 = kick and snare;
#X text 620 139 4 = kick and hihat;
#X text 620 168 5 = snare and hihat;
#X text 620 200 6 = kick snare hihat;
#X obj 100 330 + 0.5;
#X obj 100 360 int;
#X floatatom 100 390 5 0 0 0 - - -, f 5;
#X msg 620 380 4 0 2 10 5 10 2 0 2 10 4 0 5 10 6 10;
#X text 880 380 kick groove;
#X msg 620 340 4 2 2 2 5 2 2 2 4 2 2 2 5 2 4 2;
#X text 840 340 rock;
#X msg 620 300 4 2 4 2 5 2 4 5 2 5 4 5 5 4 2 5;
#X text 840 300 funky;
#X msg 620 260 4 10 2 10 5 10 2 2 2 10 4 10 5 0 2 2;
#X text 880 260 spacy;
#N canvas -8 -8 1920 1009 deserializer 1;
#X msg 242 110 devices;
#X text 70 110 list number of devices;
#X obj 241 139 comport 0 9600;
#X text 798 148 Sound Simulator : Arduino To Pure Data (Tutorial) (https://www.youtube.com/watch?v=eVW0FD9g_Sk)
;
#X obj 190 250 iem_alisttosym;
#X obj 190 290 fromsymbol;
#X text 360 89 replace number with port number;
#X msg 367 109 close;
#X text 348 140 0 to 1023;
#X text 366 206 stores floats that it receives. if it receives a bang
\, outputs the list;
#X text 392 251 converts a list of ASCII characters to a symbol;
#X obj 190 220 zl group 100;
#X text 346 177 ASCII: 32=space 13=CR 10=LF;
#X obj 254 178 sel 13 10;
#X text 82 283 split a list;
#X text 370 272 converts symbol to the message itself??? like "symbol
asdf" to "asdf" or to a list or sth?;
#X obj 298 65 list;
#X obj 292 17 inlet;
#X text 455 25 inlet indicating port number;
#X msg 1081 364 devices;
#X obj 1080 393 comport 0 9600;
#X obj 359 42 bng 18 250 50 0 empty empty empty 17 7 0 10 #fcfcfc #000000
#000000;
#X msg 300 110 open 5;
#X obj 140 400 route 49 50 51 52 53 54;
#N canvas -8 -8 1920 984 decoder 0;
#X obj 100 80 inlet;
#X obj 100 130 iem_alisttosym;
#X obj 100 180 fromsymbol;
#X floatatom 100 230 5 0 0 0 - - -, f 5;
#X obj 100 258 outlet;
#X obj 240 80 inlet;
#X obj 240 130 iem_alisttosym;
#X obj 240 180 fromsymbol;
#X floatatom 240 230 5 0 0 0 - - -, f 5;
#X obj 240 258 outlet;
#X obj 370 80 inlet;
#X obj 370 130 iem_alisttosym;
#X obj 370 180 fromsymbol;
#X floatatom 370 230 5 0 0 0 - - -, f 5;
#X obj 370 258 outlet;
#X obj 490 80 inlet;
#X obj 490 130 iem_alisttosym;
#X obj 490 180 fromsymbol;
#X floatatom 490 230 5 0 0 0 - - -, f 5;
#X obj 490 258 outlet;
#X obj 610 80 inlet;
#X obj 610 130 iem_alisttosym;
#X obj 610 180 fromsymbol;
#X floatatom 610 230 5 0 0 0 - - -, f 5;
#X obj 610 258 outlet;
#X obj 730 80 inlet;
#X obj 730 130 iem_alisttosym;
#X obj 730 180 fromsymbol;
#X floatatom 730 230 5 0 0 0 - - -, f 5;
#X obj 730 258 outlet;
#X connect 0 0 1 0;
#X connect 1 0 2 0;
#X connect 2 0 3 0;
#X connect 3 0 4 0;
#X connect 5 0 6 0;
#X connect 6 0 7 0;
#X connect 7 0 8 0;
#X connect 8 0 9 0;
#X connect 10 0 11 0;
#X connect 11 0 12 0;
#X connect 12 0 13 0;
#X connect 13 0 14 0;
#X connect 15 0 16 0;
#X connect 16 0 17 0;
#X connect 17 0 18 0;
#X connect 18 0 19 0;
#X connect 20 0 21 0;
#X connect 21 0 22 0;
#X connect 22 0 23 0;
#X connect 23 0 24 0;
#X connect 25 0 26 0;
#X connect 26 0 27 0;
#X connect 27 0 28 0;
#X connect 28 0 29 0;
#X restore 140 460 pd decoder;
#X obj 20 520 outlet;
#X obj 80 520 outlet;
#X obj 140 520 outlet;
#X obj 200 520 outlet;
#X obj 260 520 outlet;
#X obj 320 520 outlet;
#X connect 0 0 2 0;
#X connect 2 0 13 0;
#X connect 4 0 5 0;
#X connect 7 0 2 0;
#X connect 11 0 4 0;
#X connect 11 0 23 0;
#X connect 13 0 11 0;
#X connect 13 2 11 0;
#X connect 16 0 22 0;
#X connect 17 0 16 1;
#X connect 17 0 21 0;
#X connect 19 0 20 0;
#X connect 21 0 16 0;
#X connect 22 0 2 0;
#X connect 23 0 24 0;
#X connect 23 1 24 1;
#X connect 23 2 24 2;
#X connect 23 3 24 3;
#X connect 23 4 24 4;
#X connect 23 5 24 5;
#X connect 24 0 25 0;
#X connect 24 1 26 0;
#X connect 24 2 27 0;
#X connect 24 3 28 0;
#X connect 24 4 29 0;
#X connect 24 5 30 0;
#X restore 270 20 pd deserializer;
#X obj 40 280 int;
#X floatatom 500 420 5 0 0 0 - - -, f 5;
#X obj 500 450 * 0.2;
#X floatatom 360 300 5 0 0 0 - - -, f 5;
#X msg 460 20 5;
#X connect 2 0 5 0;
#X connect 2 0 49 0;
#X connect 3 0 6 0;
#X connect 5 0 7 0;
#X connect 5 1 8 0;
#X connect 6 0 7 0;
#X connect 7 0 10 0;
#X connect 8 0 10 1;
#X connect 10 0 11 0;
#X connect 10 0 12 0;
#X connect 11 0 10 1;
#X connect 12 0 13 0;
#X connect 13 0 14 0;
#X connect 14 0 45 0;
#X connect 15 0 14 1;
#X connect 16 0 20 0;
#X connect 16 1 21 0;
#X connect 16 2 22 0;
#X connect 16 3 20 0;
#X connect 16 3 21 0;
#X connect 16 4 20 0;
#X connect 16 4 22 0;
#X connect 16 5 21 0;
#X connect 16 5 22 0;
#X connect 16 6 22 0;
#X connect 16 6 20 0;
#X connect 16 6 21 0;
#X connect 17 0 18 0;
#X connect 17 0 18 1;
#X connect 19 0 33 0;
#X connect 20 0 17 0;
#X connect 21 0 17 0;
#X connect 22 0 17 0;
#X connect 23 0 20 1;
#X connect 24 0 21 1;
#X connect 33 0 34 0;
#X connect 34 0 35 0;
#X connect 35 0 16 0;
#X connect 36 0 1 0;
#X connect 38 0 1 0;
#X connect 40 0 1 0;
#X connect 42 0 1 0;
#X connect 44 1 46 0;
#X connect 44 2 3 0;
#X connect 44 3 48 0;
#X connect 45 0 19 0;
#X connect 46 0 47 0;
#X connect 47 0 22 1;
#X connect 49 0 44 0;
