#N canvas 612 102 602 517 12;
#X obj 99 72 bng 15 250 50 0 empty empty empty 17 7 0 10 #fcfcfc #000000
#000000;
#X obj 139 82 f;
#X msg 99 112 150 \, 50 70 0;
#X obj 99 142 vline~;
#X msg 159 142 \$1 1 0 \, 0 100 1;
#X obj 99 172 osc~;
#X obj 159 172 vline~;
#X obj 99 202 *~;
#X text 199 72 kick drum;
#X obj 90 30 inlet;
#X obj 160 30 inlet;
#X obj 100 240 outlet~;
#X connect 0 0 2 0;
#X connect 0 0 1 0;
#X connect 1 0 4 0;
#X connect 2 0 3 0;
#X connect 3 0 5 0;
#X connect 4 0 6 0;
#X connect 5 0 7 0;
#X connect 6 0 7 1;
#X connect 7 0 11 0;
#X connect 9 0 0 0;
#X connect 10 0 1 1;
